<?xml version="1.0" encoding="utf-8"?>
<!-- Generator: Adobe Illustrator 17.0.0, SVG Export Plug-In . SVG Version: 6.00 Build 0)  -->
<!DOCTYPE svg PUBLIC "-//W3C//DTD SVG 1.1//EN" "http://www.w3.org/Graphics/SVG/1.1/DTD/svg11.dtd">
<svg version="1.1" id="Objects" xmlns="http://www.w3.org/2000/svg" xmlns:xlink="http://www.w3.org/1999/xlink" x="0px" y="0px"
	 width="370px" height="83px" viewBox="-37.5 22.7 370 83" style="enable-background:new -37.5 22.7 370 83;" xml:space="preserve">
<title>repeat</title>
<polygon style="fill:#CFCFCF;" points="329.2,97.6 329.2,95.9 324.5,95.9 324.5,82.1 322.8,82.1 322.8,71.2 320.9,71.2 320.9,47.6 
	308.4,47.6 308.4,105.5 306.2,105.5 306.2,76.1 300.1,76.1 300.1,74.4 281.3,74.4 281.3,68.4 279.6,68.4 279.2,66.4 279,66.4 
	279,65.6 278.6,65.6 278.6,64.3 277.7,64.3 277.7,65.6 277.4,65.6 277.4,66.4 277.1,66.4 276.7,68.4 274.9,68.4 274.9,77.8 
	274,77.8 274,89.2 272.8,89.2 272.8,81.7 269.7,81.7 269.7,77.8 261.9,77.8 261.9,73.6 261,73.6 261,71.1 255.8,71.1 255.8,73.6 
	254.9,73.6 254.9,77.8 251.2,77.8 251.2,81.8 250,81.8 250,87.5 241.9,87.5 241.9,93.5 239.6,93.5 239.6,58.5 233,58.5 233,52.5 
	221.7,52.5 221.7,58.5 215.8,58.5 215.8,70.2 206,70.2 206,34 206,22.7 205,22.7 205,31.1 203.2,31.1 203.2,22.7 202.1,22.7 
	202.1,31.1 199.7,31.1 199.7,34 194.8,34 191.6,45.8 186.6,49.1 179.3,49.1 177.9,47.3 170,47.3 166.4,52.1 164.2,46.8 164.2,44.9 
	163.9,44.9 163.9,41.8 163.5,41.8 163.5,38.7 162.9,38.7 162.9,41.8 162.5,41.8 162.5,44.9 162.2,44.9 162.2,46.7 158.2,54.1 
	158.2,68.1 152.8,68.1 152.8,71.3 149.1,71.3 149.1,82.4 146.2,82.4 146.2,90.7 144.5,90.7 144.5,87 140.9,87 140.9,82.3 
	139.2,82.3 139.2,60 137.9,60 137.9,54.8 135.6,54.8 135.6,51.1 134.7,51.1 134.7,47.2 133.3,47.2 133.3,43.9 127.6,43.9 
	127.6,47.2 126.2,47.2 126.2,51.1 125.3,51.1 125.3,54.8 118.3,54.8 118.3,60 116.4,60 116.4,70.6 109.2,70.6 105.5,72.2 
	105.5,74.6 104.6,74.6 104.6,83.3 95.4,83.3 95.4,80.5 92.3,80.5 92.3,75.9 79.2,75.9 79.2,40.7 71.9,40.7 71.9,39 67.5,39 
	67.5,37.1 64,37.1 64,39 59.6,39 59.6,40.7 53.3,40.7 53.3,78 47.4,78 47.4,79.3 46.2,79.3 46.2,81.3 39.2,81.3 39.2,77.7 
	38.3,77.7 38.3,75.7 36.3,75.7 36.3,77.7 35.5,77.7 35.5,81.3 33.2,81.3 33.2,63.1 23.6,63.1 23.6,59.5 14.1,59.5 14.1,63.1 
	4.1,63.1 4.1,75 2.4,75 2.4,52.8 -8.2,52.8 -8.2,49.5 -20.5,49.5 -20.5,52.8 -30.5,52.8 -30.5,93.7 -35.2,93.7 -35.2,97.6 
	-37.6,97.6 -37.6,105.7 332.6,105.7 332.6,97.6 "/>
</svg>
