<?xml version="1.0" encoding="utf-8"?>
<!-- Generator: Adobe Illustrator 17.0.0, SVG Export Plug-In . SVG Version: 6.00 Build 0)  -->
<!DOCTYPE svg PUBLIC "-//W3C//DTD SVG 1.1//EN" "http://www.w3.org/Graphics/SVG/1.1/DTD/svg11.dtd">
<svg version="1.1" id="Objects" xmlns="http://www.w3.org/2000/svg" xmlns:xlink="http://www.w3.org/1999/xlink" x="0px" y="0px"
	 width="370px" height="83px" viewBox="0 0 370 83" enable-background="new 0 0 370 83" xml:space="preserve">
<title>repeat</title>
<polygon fill="#FFFFFF" points="366.7,74.9 366.7,73.2 362,73.2 362,59.4 360.3,59.4 360.3,48.5 358.4,48.5 358.4,24.9 345.9,24.9 
	345.9,82.8 343.7,82.8 343.7,53.4 337.6,53.4 337.6,51.7 318.8,51.7 318.8,45.7 317.1,45.7 316.7,43.7 316.5,43.7 316.5,42.9 
	316.1,42.9 316.1,41.6 315.2,41.6 315.2,42.9 314.9,42.9 314.9,43.7 314.6,43.7 314.2,45.7 312.4,45.7 312.4,55.1 311.5,55.1 
	311.5,66.5 310.3,66.5 310.3,59 307.2,59 307.2,55.1 299.4,55.1 299.4,50.9 298.5,50.9 298.5,48.4 293.3,48.4 293.3,50.9 
	292.4,50.9 292.4,55.1 288.7,55.1 288.7,59.1 287.5,59.1 287.5,64.8 279.4,64.8 279.4,70.8 277.1,70.8 277.1,35.8 270.5,35.8 
	270.5,29.8 259.2,29.8 259.2,35.8 253.3,35.8 253.3,47.5 243.5,47.5 243.5,11.3 243.5,0 242.5,0 242.5,8.4 240.7,8.4 240.7,0 
	239.6,0 239.6,8.4 237.2,8.4 237.2,11.3 232.3,11.3 229.1,23.1 224.1,26.4 216.8,26.4 215.4,24.6 207.5,24.6 203.9,29.4 201.7,24.1 
	201.7,22.2 201.4,22.2 201.4,19.1 201,19.1 201,16 200.4,16 200.4,19.1 200,19.1 200,22.2 199.7,22.2 199.7,24 195.7,31.4 
	195.7,45.4 190.3,45.4 190.3,48.6 186.6,48.6 186.6,59.7 183.7,59.7 183.7,68 182,68 182,64.3 178.4,64.3 178.4,59.6 176.7,59.6 
	176.7,37.3 175.4,37.3 175.4,32.1 173.1,32.1 173.1,28.4 172.2,28.4 172.2,24.5 170.8,24.5 170.8,21.2 165.1,21.2 165.1,24.5 
	163.7,24.5 163.7,28.4 162.8,28.4 162.8,32.1 155.8,32.1 155.8,37.3 153.9,37.3 153.9,47.9 146.7,47.9 143,49.5 143,51.9 
	142.1,51.9 142.1,60.6 132.9,60.6 132.9,57.8 129.8,57.8 129.8,53.2 116.7,53.2 116.7,18 109.4,18 109.4,16.3 105,16.3 105,14.4 
	101.5,14.4 101.5,16.3 97.1,16.3 97.1,18 90.8,18 90.8,55.3 84.9,55.3 84.9,56.6 83.7,56.6 83.7,58.6 76.7,58.6 76.7,55 75.8,55 
	75.8,53 73.8,53 73.8,55 73,55 73,58.6 70.7,58.6 70.7,40.4 61.1,40.4 61.1,36.8 51.6,36.8 51.6,40.4 41.6,40.4 41.6,52.3 
	39.9,52.3 39.9,30.1 29.3,30.1 29.3,26.8 17,26.8 17,30.1 7,30.1 7,71 2.3,71 2.3,74.9 -0.1,74.9 -0.1,83 370.1,83 370.1,74.9 "/>
</svg>
