<?xml version="1.0" encoding="utf-8"?><!DOCTYPE svg PUBLIC "-//W3C//DTD SVG 1.1//EN" "http://www.w3.org/Graphics/SVG/1.1/DTD/svg11.dtd"><svg width="36" height="107" viewBox="0 0 36 107" xmlns="http://www.w3.org/2000/svg" xmlns:xlink="http://www.w3.org/1999/xlink"><svg id="fb" width="36" height="36" viewBox="0 0 36 36"><style>.ast0{fill:#3b5998}.ast1{fill:#fff}</style><circle class="ast0" cx="18" cy="18" r="18"/><path class="ast1" d="M22.6 18.7h-3.2v11.8h-4.9V18.7h-2.3v-4.1h2.3v-2.8c0-1.9 1-4.9 4.9-4.9H23v4h-2.5c-.5 0-1.1.2-1.1 1.1v2.4H23l-.4 4.3z"/></svg><svg id="insta" width="36" height="36" viewBox="0 0 36 36" y="36"><style>.bst0{fill:#fff}.bst1{fill:#6a453b}</style><circle class="bst0" cx="18" cy="18" r="16.7"/><path class="bst1" d="M23.4 9.6H12.7c-1.7 0-3.1 1.4-3.1 3.1v10.7c0 1.7 1.4 3.1 3.1 3.1h10.7c1.7 0 3.1-1.4 3.1-3.1V12.7c0-1.8-1.4-3.1-3.1-3.1zm-5.4 14c-3.1 0-5.5-2.5-5.5-5.5 0-3.1 2.5-5.5 5.5-5.5 3.1 0 5.5 2.5 5.5 5.5s-2.4 5.5-5.5 5.5zm5.8-9.9c-.7 0-1.3-.6-1.3-1.3s.6-1.3 1.3-1.3c.7 0 1.3.6 1.3 1.3 0 .7-.6 1.3-1.3 1.3z"/><path class="bst1" d="M18 14.9c-1.8 0-3.2 1.4-3.2 3.2s1.4 3.2 3.2 3.2 3.2-1.4 3.2-3.2-1.4-3.2-3.2-3.2z"/><path class="bst1" d="M18 0C8 0 0 8 0 18s8 18 18 18 18-8 18-18S28 0 18 0zm10.8 23.4c0 3-2.4 5.5-5.5 5.5H12.6c-3 0-5.4-2.5-5.4-5.5V12.7c0-3 2.4-5.5 5.4-5.5h10.7c3 0 5.5 2.4 5.5 5.5v10.7z"/></svg><svg width="14" height="35" viewBox="0 0 14 35" id="phone" y="72"><title>telephone</title><path fill="#979797" d="M13.6 31.1c-.1-.3-.2-.7-.3-1.2s-.3-1-.4-1.4l-.3-1.2c0-.1 0-.3-.1-.6 0-.3-.1-.5-.2-.8-.1-.2-.2-.4-.3-.5-.3-.2-.7-.3-1.1-.3-.6 0-1.1 0-1.6.1s-1.1.1-1.6.1c-.4 0-.7 0-1-.3-.1-.1-.2-.2-.2-.4-.1-.2-.1-.3-.2-.4 0-.1-.1-.3-.1-.6s-.1-.4-.1-.4C5.3 21.3 5 19.4 5 17.4s.3-3.9.9-5.8c0 0 0-.2.1-.4s.1-.4.1-.5.1-.2.2-.4c.1-.1.1-.3.2-.4.3-.2.7-.3 1-.3.5 0 1.1.1 1.6.1.5.1 1.1.1 1.6.1.4 0 .8-.1 1.1-.3.1-.1.2-.3.3-.5.1-.3.2-.5.2-.8.1-.3.1-.5.1-.6l.3-1.2c.3-.4.5-.9.6-1.4s.3-.9.3-1.2c.3-.6.4-1.2.4-1.9-.1-.1-.1-.2-.2-.3-.4-.4-.8-.6-1.3-.9-.4-.3-.8-.5-1.3-.7C10.1-.3 9-.2 8 .2c-1.3.3-2.4 1-3.3 1.9-.2.4-.5.6-.7.9-.2.3-.5.7-.6 1-.2.4-.4.7-.5.9l-.5 1c-.2.6-.3.9-.4 1-.6 1.2-1 2.4-1.3 3.7-.5 2.2-.7 4.5-.7 6.8s.2 4.6.7 6.8c.3 1.3.7 2.5 1.3 3.7.1.1.2.4.4 1l.5 1.1c.1.2.2.5.5.9.2.3.4.7.6 1 .2.3.4.5.7.8.9.9 2.1 1.6 3.3 1.9 1 .4 2.1.5 3.2.2.4-.2.9-.4 1.3-.7.4-.2.8-.5 1.1-.9.1-.1.2-.2.3-.4.1-.6 0-1.2-.3-1.7z"/></svg></svg>